<svg xmlns="http://www.w3.org/2000/svg" viewBox="0.1 43.9 415 71.9"><path fill="#ffffff" d="M85.8 91.4c.8 1.6 1 3.4.4 5.1-.6 1.8-1.7 3-3.3 3.8-1.7.8-3.4 1-5.1.3-1.7-.6-3-1.6-3.9-3.3-.9-1.6-1-3.3-.4-5 .6-1.8 1.7-3 3.4-3.9 1.7-.8 3.4-1 5.1-.4 1.6.6 2.9 1.8 3.8 3.4M62.4 55.8l-9.8 30.1-9-30.1h-12l-9.1 30.1-9.7-30.1H.1l15.8 43.5h12.6l9.1-30.2 9 30.2h12.7L75 55.8zm16.1 25.9h10.7l11-25.9H86.5zM183 90.2c-3.8 0-6.8-.8-8.8-2.5-1.2-.9-2.2-2-2.9-3.2-.9-1.7-1-3.6-1-3.6s3.4.7 11.6.7c12.7 0 20.7-2.7 20.7-11.1 0-8.9-7.6-15.9-20-16.1h-.6c-3.5 0-6.7.6-9.7 1.8-2.9 1.2-5.4 2.8-7.6 4.9-2 2-3.6 4.4-4.8 7.3-1.1 3-1.6 6-1.6 9 0 2.6.3 4.8.9 7 .2.8.5 1.6.8 2.4 1 2.8 2.6 5.2 4.6 7.3 2 2 4.5 3.5 7.5 4.7 3 1.1 6.3 1.6 10.3 1.6 4.1 0 7.7-.5 10.9-1.4 3.3-.9 6.3-2.4 9.2-4.4l-5-8.5c-4.2 2.7-9.1 4.1-14.5 4.1m-1.2-25.6c4.9 0 8.9 2.6 8.9 5.3 0 2.2-2.4 2.8-8.9 2.8h-11.2c.6-3.1 4.3-8.1 11.2-8.1m213.6 25.6c-3.8 0-6.8-.8-8.8-2.5-1.2-.9-2.2-2-2.9-3.2-.9-1.7-1-3.6-1-3.6s3.4.7 11.6.7c12.8 0 20.7-2.7 20.7-11.1 0-8.9-7.6-15.9-20-16.1h-.5c-3.5 0-6.7.6-9.7 1.8-2.9 1.2-5.4 2.8-7.6 4.9-2 2-3.6 4.4-4.8 7.3-1.1 3-1.6 6-1.6 9 0 2.6.3 4.8.9 7 .2.8.5 1.6.8 2.4 1 2.8 2.6 5.2 4.6 7.3 2 2 4.5 3.5 7.5 4.7 3 1.1 6.3 1.6 10.3 1.6 4.1 0 7.7-.5 10.9-1.4 3.3-.9 6.3-2.4 9.2-4.4l-5-8.5c-4.3 2.7-9.1 4.1-14.6 4.1m-1.2-25.6c4.9 0 8.9 2.6 8.9 5.3 0 2.2-2.4 2.8-8.9 2.8H383c.6-3.1 4.3-8.1 11.2-8.1M247.6 76.7c-2.9-2.1-6.8-3.5-11.7-4l-8.5-1c-2.9-.4-4.3-1.5-4.3-3.4 0-2.6 2.6-3.8 7.9-3.8 5.2 0 10 1.1 14.2 3.4l4.7-8.8c-5.2-3-11.5-4.5-18.7-4.5-6.4 0-11.3 1.3-14.6 3.9-3.4 2.6-5 6-5 10.3 0 4 1.2 7.2 3.6 9.3 2.4 2.2 5.8 3.5 10 3.9l10 1.1c1.6.1 2.9.5 3.8 1 .9.6 1.3 1.4 1.3 2.5 0 1.3-.8 2.3-2.4 3.1-1.7.6-4.3.9-7.4.9-2.7 0-5.4-.3-8.2-.9-2.4-.6-4.9-1.6-7.7-3.1l-4.5 8.7c3.3 2 6.5 3.4 9.4 4 3 .8 6.5 1.2 10.6 1.2 6.7 0 12.1-1.3 15.9-3.8 3.8-2.6 5.7-6.1 5.7-10.8 0-4-1.3-7.1-4.1-9.2m-98.4-7.3c0-5.4-4-14.5-16.9-14.5-6.3 0-11.9 2.9-15.8 5.3l-.9-4.3h-10.5v43.5h12.1V69.5c1.9-1.2 6.8-4.5 11.9-4.5 6 0 7.9 4.1 7.9 6.7v19.2c0 4.4 1.4 8.4 1.4 8.4h11.1s-.3-4.4-.3-8.4V69.4zm211.6 21.5v-47h-12.1V91c0 4.4 1.3 8.4 1.3 8.4h11.1c.1-.1-.3-4.4-.3-8.5m-31.7-35.1l-10.7 31.4c-3.1-1.3-4.5-3.9-5.7-7.4-1-3.1-5.1-15.7-7.8-24.1h-29.2V43.9h-12.1v12h-8.2v8.8h8.2v19.9c0 9.7 6.9 14.6 21.2 15.3l3.8-9.7c-5.1-.2-12.9-1.5-12.9-7.3V64.6H295c2.5 7.7 5.2 16.3 6.4 19.7 3.5 10.2 13.2 12.7 13.2 12.7l-6.3 18.8h12.5l21-60.1c0 .1-12.7.1-12.7.1z"/><path fill="#F33246" d="M288.7 90.3v-.1z"/></svg>